HIERARCHY
ROOT SpineBase
{
  OFFSET 0.000000 0.000000 0.000000
  CHANNELS 6 Xposition Yposition Zposition Zrotation Xrotation Yrotation
  JOINT SpineMid
  {
    OFFSET -0.000000 26.353302 0.000000
    CHANNELS 3 Zrotation Xrotation Yrotation
    JOINT SpineShoulder
    {
      OFFSET -0.061478 19.632609 -0.686820
      CHANNELS 3 Zrotation Xrotation Yrotation
      JOINT Neck
      {
        OFFSET -0.033483 6.520632 -0.506331
        CHANNELS 3 Zrotation Xrotation Yrotation
        JOINT Head
        {
          OFFSET -2.374417 11.864181 1.404966
          CHANNELS 3 Zrotation Xrotation Yrotation
          End Site
          {
            OFFSET 0 0 0
          }
        }
      }
      JOINT ShoulderLeft
      {
        OFFSET -13.092666 -3.629792 3.534731
        CHANNELS 3 Zrotation Xrotation Yrotation
        JOINT ElbowLeft
        {
          OFFSET -1.969074 -21.726635 1.964831
          CHANNELS 3 Zrotation Xrotation Yrotation
          JOINT WristLeft
          {
            OFFSET -1.871864 -20.225541 -5.096360
            CHANNELS 3 Zrotation Xrotation Yrotation
            JOINT HandLeft
            {
              OFFSET 0.856998 -6.600743 -1.752802
              CHANNELS 3 Zrotation Xrotation Yrotation
              JOINT HandTipLeft
              {
                OFFSET -0.378986 -6.330586 -1.867823
                CHANNELS 3 Zrotation Xrotation Yrotation
                End Site
                {
                  OFFSET 0 0 0
                }
              }
              JOINT ThumbLeft
              {
                OFFSET -2.644461 -3.987537 -1.320181
                CHANNELS 3 Zrotation Xrotation Yrotation
                End Site
                {
                  OFFSET 0 0 0
                }
              }
            }
          }
        }
      }
      JOINT ShoulderRight
      {
        OFFSET 12.314627 -2.260465 -5.576763
        CHANNELS 3 Zrotation Xrotation Yrotation
        JOINT ElbowRight
        {
          OFFSET 4.542084 -21.570244 -1.178494
          CHANNELS 3 Zrotation Xrotation Yrotation
          JOINT WristRight
          {
            OFFSET 0.105064 -20.237753 -6.045181
            CHANNELS 3 Zrotation Xrotation Yrotation
            JOINT HandRight
            {
              OFFSET -1.452012 -7.655057 -1.786675
              CHANNELS 3 Zrotation Xrotation Yrotation
              JOINT HandTipRight
              {
                OFFSET 0.446093 -5.662783 -1.724663
                CHANNELS 3 Zrotation Xrotation Yrotation
                End Site
                {
                  OFFSET 0 0 0
                }
              }
              JOINT ThumbRight
              {
                OFFSET -2.319040 0.872595 -0.416011
                CHANNELS 3 Zrotation Xrotation Yrotation
                End Site
                {
                  OFFSET 0 0 0
                }
              }
            }
          }
        }
      }
    }
  }
  JOINT HipLeft
  {
    OFFSET -5.883396 0.313744 -1.443830
    CHANNELS 3 Zrotation Xrotation Yrotation
    JOINT KneeLeft
    {
      OFFSET 3.746751 -34.083838 3.524890
      CHANNELS 3 Zrotation Xrotation Yrotation
      JOINT AnkleLeft
      {
        OFFSET 6.043904 -32.713118 5.385733
        CHANNELS 3 Zrotation Xrotation Yrotation
        JOINT FootLeft
        {
          OFFSET -3.012103 -3.154671 -11.359123
          CHANNELS 3 Zrotation Xrotation Yrotation
          End Site
          {
            OFFSET 0 0 0
          }
        }
      }
    }
  }
  JOINT HipRight
  {
    OFFSET 5.474346 1.060639 -4.546107
    CHANNELS 3 Zrotation Xrotation Yrotation
    JOINT KneeRight
    {
      OFFSET 5.516342 -30.952448 -0.056539
      CHANNELS 3 Zrotation Xrotation Yrotation
      JOINT AnkleRight
      {
        OFFSET 2.368039 -35.416280 7.508428
        CHANNELS 3 Zrotation Xrotation Yrotation
        JOINT FootRight
        {
          OFFSET -3.083779 -3.152731 -11.351989
          CHANNELS 3 Zrotation Xrotation Yrotation
          End Site
          {
            OFFSET 0 0 0
          }
        }
      }
    }
  }
}
MOTION
Frames: 13
Frame Time: 0.033333
24.783753 73.179717 371.417118 -0.741392 0.425197 12.239926 -0.329063 0.282573 -12.273757 0.061240 0.260082 -0.037835 -0.730364 3.001790 1.109762 0.000000 0.000000 0.000000 -137.516909 68.855197 103.642060 68.381146 70.004781 52.595180 -51.986095 1.452770 -13.528464 -61.656946 -7.474667 -45.821927 0.000000 0.000000 0.000000 0.000000 0.000000 0.000000 -86.971819 56.622319 79.424796 -79.871297 11.814385 -60.107515 -55.854218 -22.525960 -85.274738 -8.334722 15.969974 13.771605 0.000000 0.000000 0.000000 0.000000 0.000000 0.000000 -0.827490 -1.811899 -12.552114 1.158072 1.526778 0.272256 2.048191 -3.950582 -4.110724 0.000000 0.000000 0.000000 -1.950680 -1.488162 -12.534426 3.825003 2.566833 0.564956 -0.769843 -3.690359 -0.592345 0.000000 0.000000 0.000000
24.777145 73.171631 371.346395 -0.761063 0.446019 12.337626 -0.240643 0.261775 -12.368667 0.110189 0.220966 -0.031478 -1.680456 3.037070 1.219240 0.000000 0.000000 0.000000 -137.677176 68.772212 103.587416 117.939750 78.115130 26.943599 -61.263729 20.802501 -21.952948 -65.947660 -5.803002 -47.344783 0.000000 0.000000 0.000000 0.000000 0.000000 0.000000 -84.878049 58.270522 78.817142 -81.788143 13.168409 -59.369386 -57.552058 -17.928491 -73.605285 0.656961 17.557262 -1.385769 0.000000 0.000000 0.000000 0.000000 0.000000 0.000000 -0.923195 -1.780780 -12.660378 1.274473 1.497514 0.279815 2.411520 -4.993357 -4.625792 0.000000 0.000000 0.000000 -2.026227 -1.619599 -12.659525 3.853777 2.725916 0.576885 -0.500151 -5.606981 0.537136 0.000000 0.000000 0.000000
24.771104 73.149474 371.273222 -0.741230 0.462529 12.405941 -0.155407 0.200763 -12.433209 0.146894 0.158272 -0.024597 -2.880286 3.469174 1.438036 0.000000 0.000000 0.000000 -137.017212 68.607644 102.424169 161.928873 76.655524 1.040523 -62.257477 35.597517 -26.947771 -80.380914 -8.135888 -51.724847 0.000000 0.000000 0.000000 0.000000 0.000000 0.000000 -82.902157 60.412222 78.808605 -80.743000 13.764923 -56.633590 -58.179602 -16.246546 -69.980546 0.809734 14.105265 -5.551110 0.000000 0.000000 0.000000 0.000000 0.000000 0.000000 -1.029514 -1.806915 -12.742444 2.054734 1.121145 0.312868 1.834598 -4.937862 -4.893399 0.000000 0.000000 0.000000 -2.156484 -1.780516 -12.764593 3.997447 2.915121 0.612085 -0.394608 -6.839794 1.214292 0.000000 0.000000 0.000000
24.773974 73.136269 371.207514 -0.716213 0.483133 12.586666 -0.115936 0.180704 -12.611574 0.156671 0.136258 -0.021233 -3.748055 3.909133 1.649109 0.000000 0.000000 0.000000 -134.080155 68.534053 98.687182 175.406686 74.248813 -5.851406 -60.828753 41.259681 -29.639724 -80.216762 -6.253365 -51.610979 0.000000 0.000000 0.000000 0.000000 0.000000 0.000000 -84.509367 60.056191 80.027597 -77.579995 12.353157 -55.960935 -67.391320 -16.777905 -92.170185 -6.502800 18.353705 14.487555 0.000000 0.000000 0.000000 0.000000 0.000000 0.000000 -1.106049 -1.825555 -12.930564 2.340463 1.073578 0.340934 0.645447 -2.044852 -3.719975 0.000000 0.000000 0.000000 -2.277917 -1.919665 -12.977437 4.126110 3.090349 0.644216 -0.803775 -4.356222 -0.334920 0.000000 0.000000 0.000000
24.780682 73.117656 371.138197 -0.702009 0.534733 12.655145 -0.114355 0.177044 -12.679178 0.133978 0.140629 -0.022214 -4.246193 4.167575 1.796215 0.000000 0.000000 0.000000 -130.542132 68.429175 94.357944 178.322270 73.412946 -9.906645 -59.574150 39.738805 -29.435575 -67.156683 0.926923 -47.833824 0.000000 0.000000 0.000000 0.000000 0.000000 0.000000 -85.036609 60.142544 80.670174 -75.125114 11.175827 -55.205278 -70.361010 -18.226636 -101.841648 -12.369450 14.544843 19.267298 0.000000 0.000000 0.000000 0.000000 0.000000 0.000000 -1.129927 -1.964110 -13.008774 2.470661 1.113594 0.358780 0.343610 -1.611418 -3.510598 0.000000 0.000000 0.000000 -2.372458 -2.104137 -13.080107 4.166178 3.187769 0.661231 -0.776080 -4.588400 -0.157244 0.000000 0.000000 0.000000
24.785682 73.107925 371.048000 -0.714168 0.600213 12.769448 -0.134275 0.193422 -12.794090 0.086266 0.164170 -0.027123 -4.498834 4.046616 1.840143 0.000000 0.000000 0.000000 -127.152657 68.321659 90.372490 178.899912 72.719268 -11.914616 -59.129027 38.608628 -28.968953 -24.898759 14.293791 -40.792086 0.000000 0.000000 0.000000 0.000000 0.000000 0.000000 -83.422845 61.580340 80.538180 -73.946706 10.912117 -53.997251 -74.591858 -16.201297 -103.944136 -12.249608 14.486332 17.875120 0.000000 0.000000 0.000000 0.000000 0.000000 0.000000 -1.069417 -2.172446 -13.128431 2.389943 1.230009 0.360884 0.740293 -2.827767 -4.021426 0.000000 0.000000 0.000000 -2.464986 -2.310277 -13.231576 4.229051 3.326889 0.681667 -0.495102 -6.896414 1.350318 0.000000 0.000000 0.000000
24.788872 73.088157 370.963858 -0.726768 0.658344 12.790440 -0.139700 0.201975 -12.815185 0.063661 0.178841 -0.029467 -4.773414 3.850907 1.854914 0.000000 0.000000 0.000000 -124.677671 68.175454 87.411186 174.120604 73.485347 -12.463296 -59.913774 34.648867 -26.975439 34.237512 12.296078 -12.944826 0.000000 0.000000 0.000000 0.000000 0.000000 0.000000 -84.266333 60.564142 80.421589 -72.007736 9.087030 -54.049596 -79.772406 -12.808943 -107.981424 -11.094083 18.047478 18.133026 0.000000 0.000000 0.000000 0.000000 0.000000 0.000000 -0.935665 -2.448880 -13.150955 2.071528 1.431172 0.344832 2.502531 -7.920611 -6.150611 0.000000 0.000000 0.000000 -2.532867 -2.489800 -13.283825 4.336070 3.381443 0.704931 0.296541 -11.174921 3.528906 0.000000 0.000000 0.000000
24.791557 73.068908 370.881090 -0.740765 0.714503 12.796749 -0.148424 0.213485 -12.821772 0.041195 0.194258 -0.032019 -4.799232 3.469102 1.786950 0.000000 0.000000 0.000000 -123.138643 68.064144 85.573512 178.824378 72.088146 -14.051550 -60.077169 37.293029 -27.976759 64.910075 10.994246 26.209769 0.000000 0.000000 0.000000 0.000000 0.000000 0.000000 -84.277481 60.928065 80.853132 -70.303946 6.693291 -54.682551 -89.120910 -5.412191 -105.849565 -4.450229 26.162259 11.291451 0.000000 0.000000 0.000000 0.000000 0.000000 0.000000 -0.758565 -2.778330 -13.156702 1.770490 1.801770 0.361021 3.263235 -10.470966 -7.075878 0.000000 0.000000 0.000000 -2.594202 -2.647797 -13.317126 4.472544 3.359964 0.726934 1.687122 -16.923635 6.592806 0.000000 0.000000 0.000000
24.786460 73.027222 370.809341 -0.766281 0.766372 12.710080 -0.152835 0.223134 -12.735525 0.024259 0.209243 -0.034405 -4.605144 3.170364 1.707809 0.000000 0.000000 0.000000 -121.542300 67.939880 83.683220 176.648223 72.222929 -13.964397 -60.492037 35.763334 -27.030714 77.966118 14.237977 49.459637 0.000000 0.000000 0.000000 0.000000 0.000000 0.000000 -84.977639 59.986542 80.665981 -72.873843 8.060715 -56.232307 -79.902389 -10.640496 -94.220735 -2.546029 21.388839 0.990930 0.000000 0.000000 0.000000 0.000000 0.000000 0.000000 -0.843672 -2.713269 -13.074766 1.827232 1.494623 0.316754 4.644917 -13.557101 -11.091632 0.000000 0.000000 0.000000 -2.603382 -2.766775 -13.246463 4.598381 3.294999 0.745919 5.376562 -27.470821 15.648511 0.000000 0.000000 0.000000
24.771586 72.988934 370.768325 -0.807895 0.803210 12.532585 -0.149280 0.235017 -12.558628 0.012025 0.220977 -0.036811 -4.233900 2.912650 1.614195 0.000000 0.000000 0.000000 -121.784276 67.830735 83.814005 167.796303 74.042259 -10.623405 -60.718567 31.284456 -24.934888 84.680523 17.215505 61.129754 0.000000 0.000000 0.000000 0.000000 0.000000 0.000000 -83.827308 59.821228 79.346447 -76.785068 10.239122 -57.349868 -67.614978 -14.702868 -76.902243 -0.788621 14.796580 -12.549925 0.000000 0.000000 0.000000 0.000000 0.000000 0.000000 -0.787241 -2.865090 -12.904811 1.686778 1.524829 0.296562 5.143818 -16.826482 -9.009427 0.000000 0.000000 0.000000 -2.552248 -2.826305 -13.071010 4.724844 3.175796 0.762490 17.814259 -43.362043 35.669446 0.000000 0.000000 0.000000
24.750252 72.961843 370.736122 -0.862845 0.830272 12.461032 -0.136213 0.244717 -12.487697 0.004994 0.222912 -0.039094 -3.935299 2.635422 1.523991 0.000000 0.000000 0.000000 -125.843605 68.006119 88.532018 145.582271 76.557239 4.656824 -60.633867 25.720338 -22.549839 89.399567 19.650810 66.127616 0.000000 0.000000 0.000000 0.000000 0.000000 0.000000 -82.195713 59.849888 77.745536 -82.211444 13.390676 -58.583705 -49.766466 -17.900368 -59.189271 -3.674725 6.244095 -23.733392 0.000000 0.000000 0.000000 0.000000 0.000000 0.000000 -0.692591 -3.035172 -12.838636 1.483557 1.659137 0.287033 5.979537 -20.681449 -7.508450 0.000000 0.000000 0.000000 -2.468661 -2.877052 -12.999915 4.800185 3.077834 0.776111 21.989588 -46.064226 42.219017 0.000000 0.000000 0.000000
24.730680 72.931408 370.716120 -0.903460 0.845928 12.366277 -0.120803 0.251672 -12.393169 0.006574 0.212681 -0.040144 -3.788147 2.410463 1.457906 0.000000 0.000000 0.000000 -125.158285 67.845433 87.571521 118.681213 76.822880 21.323463 -57.551207 16.883572 -19.024404 91.648502 20.751771 66.609207 0.000000 0.000000 0.000000 0.000000 0.000000 0.000000 -81.050366 59.562857 76.310275 -87.029689 16.249354 -59.448853 -35.562344 -19.702148 -51.685527 -7.592457 1.873368 -24.964482 0.000000 0.000000 0.000000 0.000000 0.000000 0.000000 -0.592287 -3.215534 -12.748900 1.395443 1.889199 0.309171 7.700717 -28.107883 -6.604941 0.000000 0.000000 0.000000 -2.408798 -2.931533 -12.909553 4.866011 3.032064 0.790515 17.019401 -42.402218 36.529163 0.000000 0.000000 0.000000
24.712622 72.896569 370.716469 -0.907110 0.818507 12.214088 -0.090275 0.219833 -12.240129 0.027904 0.164935 -0.037740 -4.050306 2.789523 1.557096 0.000000 0.000000 0.000000 -126.623606 67.679746 88.990887 91.878270 74.336781 39.083898 -53.453103 9.329987 -15.338427 91.825739 20.815422 62.049603 0.000000 0.000000 0.000000 0.000000 0.000000 0.000000 -82.343356 58.058829 76.023353 -88.104237 17.501105 -59.405234 -28.632651 -26.217355 -63.799770 -15.377258 0.556017 -9.048338 0.000000 0.000000 0.000000 0.000000 0.000000 0.000000 -0.523647 -3.354245 -12.603643 0.692621 2.574858 0.339723 8.409015 -28.857009 -4.477064 0.000000 0.000000 0.000000 -2.352289 -2.889541 -12.748842 4.907768 2.951371 0.797568 4.093775 -25.652254 17.715993 0.000000 0.000000 0.000000
